<svg width="220" height="72" viewBox="0 0 220 72" fill="none" xmlns="http://www.w3.org/2000/svg">
<rect width="220" height="72" fill="url(#paint0_linear_54_1024)"/>
<path fill-rule="evenodd" clip-rule="evenodd" d="M22 22H23.6H31.6V23.6H23.6V48.4H31.6V50H23.6H22V48.4V41.6H18.8V40H22V36.8H17.2V35.2H22V32H18.8V30.4H22V23.6V22ZM40.3999 22H48.3999H49.9999V23.6V48.4V50H48.3999H40.3999V48.4H48.3999V23.6H40.3999V22ZM53.2 30.4H50V32H53.2V30.4ZM50 35.2H54.8V36.8H50V35.2ZM53.2 40H50V41.6H53.2V40ZM26.4 29.8054H31.7402V43.2H35.8598V36.0324H39.2083V45.6H41.9918V36.0324H45.6V33.6H35.8598V29.8054H41.2V26.4H26.4V29.8054Z" fill="#DAE9FD"/>
<path d="M60.9545 29.696V27.0455H74.8807V29.696H69.4858V44.5H66.3494V29.696H60.9545ZM76.0696 44.5V31.4091H79.0611V33.5909H79.1974C79.4361 32.8352 79.8452 32.2528 80.4247 31.8438C81.0099 31.429 81.6776 31.2216 82.4276 31.2216C82.598 31.2216 82.7884 31.2301 82.9986 31.2472C83.2145 31.2585 83.3935 31.2784 83.5355 31.3068V34.1449C83.4048 34.0994 83.1974 34.0597 82.9134 34.0256C82.6349 33.9858 82.3651 33.9659 82.1037 33.9659C81.5412 33.9659 81.0355 34.0881 80.5866 34.3324C80.1435 34.571 79.794 34.9034 79.5384 35.3295C79.2827 35.7557 79.1548 36.2472 79.1548 36.804V44.5H76.0696ZM89.1179 44.7642C88.2884 44.7642 87.5412 44.6165 86.8764 44.321C86.2173 44.0199 85.6946 43.5767 85.3082 42.9915C84.9276 42.4062 84.7372 41.6847 84.7372 40.8267C84.7372 40.0881 84.8736 39.4773 85.1463 38.9943C85.419 38.5114 85.7912 38.125 86.2628 37.8352C86.7344 37.5455 87.2656 37.3267 87.8565 37.179C88.4531 37.0256 89.0696 36.9148 89.706 36.8466C90.473 36.767 91.0952 36.696 91.5724 36.6335C92.0497 36.5653 92.3963 36.4631 92.6122 36.3267C92.8338 36.1847 92.9446 35.9659 92.9446 35.6705V35.6193C92.9446 34.9773 92.7543 34.4801 92.3736 34.1278C91.9929 33.7756 91.4446 33.5994 90.7287 33.5994C89.973 33.5994 89.3736 33.7642 88.9304 34.0938C88.4929 34.4233 88.1974 34.8125 88.044 35.2614L85.1634 34.8523C85.3906 34.0568 85.7656 33.392 86.2884 32.858C86.8111 32.3182 87.4503 31.9148 88.206 31.6477C88.9616 31.375 89.7969 31.2386 90.7116 31.2386C91.3423 31.2386 91.9702 31.3125 92.5952 31.4602C93.2202 31.608 93.7912 31.8523 94.3082 32.1932C94.8253 32.5284 95.2401 32.9858 95.5526 33.5653C95.8707 34.1449 96.0298 34.8693 96.0298 35.7386V44.5H93.0639V42.7017H92.9616C92.7741 43.0653 92.5099 43.4062 92.169 43.7244C91.8338 44.0369 91.4105 44.2898 90.8991 44.483C90.3935 44.6705 89.7997 44.7642 89.1179 44.7642ZM89.919 42.4972C90.5384 42.4972 91.0753 42.375 91.5298 42.1307C91.9844 41.8807 92.3338 41.5511 92.5781 41.142C92.8281 40.733 92.9531 40.2869 92.9531 39.804V38.2614C92.8565 38.3409 92.6918 38.4148 92.4588 38.483C92.2315 38.5511 91.9759 38.6108 91.6918 38.6619C91.4077 38.7131 91.1264 38.7585 90.848 38.7983C90.5696 38.8381 90.3281 38.8722 90.1236 38.9006C89.6634 38.9631 89.2514 39.0653 88.8878 39.2074C88.5241 39.3494 88.2372 39.5483 88.027 39.804C87.8168 40.054 87.7116 40.3778 87.7116 40.7756C87.7116 41.3438 87.919 41.7727 88.3338 42.0625C88.7486 42.3523 89.277 42.4972 89.919 42.4972ZM103.99 44.7301C102.962 44.7301 102.041 44.4659 101.229 43.9375C100.416 43.4091 99.7741 42.642 99.3026 41.6364C98.831 40.6307 98.5952 39.4091 98.5952 37.9716C98.5952 36.517 98.8338 35.2898 99.3111 34.2898C99.794 33.2841 100.445 32.5256 101.263 32.0142C102.081 31.4972 102.993 31.2386 103.999 31.2386C104.766 31.2386 105.396 31.3693 105.891 31.6307C106.385 31.8864 106.777 32.196 107.067 32.5597C107.357 32.9176 107.581 33.2557 107.74 33.5739H107.868V27.0455H110.962V44.5H107.928V42.4375H107.74C107.581 42.7557 107.351 43.0937 107.05 43.4517C106.749 43.804 106.351 44.1051 105.857 44.3551C105.362 44.6051 104.74 44.7301 103.99 44.7301ZM104.851 42.1989C105.504 42.1989 106.061 42.0227 106.521 41.6705C106.982 41.3125 107.331 40.8153 107.57 40.179C107.808 39.5426 107.928 38.8011 107.928 37.9545C107.928 37.108 107.808 36.3722 107.57 35.7472C107.337 35.1222 106.99 34.6364 106.53 34.2898C106.075 33.9432 105.516 33.7699 104.851 33.7699C104.163 33.7699 103.589 33.9489 103.129 34.3068C102.669 34.6648 102.322 35.1591 102.089 35.7898C101.857 36.4205 101.74 37.142 101.74 37.9545C101.74 38.7727 101.857 39.5028 102.089 40.1449C102.328 40.7812 102.678 41.2841 103.138 41.6534C103.604 42.017 104.175 42.1989 104.851 42.1989ZM114.249 44.5V31.4091H117.335V44.5H114.249ZM115.8 29.5511C115.312 29.5511 114.891 29.3892 114.539 29.0653C114.187 28.7358 114.011 28.3409 114.011 27.8807C114.011 27.4148 114.187 27.0199 114.539 26.696C114.891 26.3665 115.312 26.2017 115.8 26.2017C116.295 26.2017 116.715 26.3665 117.062 26.696C117.414 27.0199 117.59 27.4148 117.59 27.8807C117.59 28.3409 117.414 28.7358 117.062 29.0653C116.715 29.3892 116.295 29.5511 115.8 29.5511ZM123.592 36.8295V44.5H120.507V31.4091H123.456V33.6335H123.609C123.911 32.9006 124.391 32.3182 125.05 31.8864C125.714 31.4545 126.536 31.2386 127.513 31.2386C128.416 31.2386 129.203 31.4318 129.874 31.8182C130.55 32.2045 131.072 32.7642 131.442 33.4972C131.817 34.2301 132.001 35.1193 131.996 36.1648V44.5H128.911V36.642C128.911 35.767 128.683 35.0824 128.229 34.5881C127.78 34.0937 127.158 33.8466 126.362 33.8466C125.822 33.8466 125.342 33.9659 124.922 34.2045C124.507 34.4375 124.18 34.7756 123.942 35.2188C123.709 35.6619 123.592 36.1989 123.592 36.8295ZM140.825 49.6818C139.717 49.6818 138.766 49.5313 137.97 49.2301C137.175 48.9347 136.536 48.5369 136.053 48.0369C135.57 47.5369 135.234 46.983 135.047 46.375L137.825 45.7017C137.95 45.9574 138.132 46.2102 138.371 46.4602C138.609 46.7159 138.93 46.9261 139.334 47.0909C139.743 47.2614 140.257 47.3466 140.876 47.3466C141.751 47.3466 142.476 47.1335 143.05 46.7074C143.624 46.2869 143.911 45.5938 143.911 44.6278V42.1477H143.757C143.598 42.4659 143.365 42.7926 143.058 43.1278C142.757 43.4631 142.357 43.7443 141.857 43.9716C141.362 44.1989 140.74 44.3125 139.99 44.3125C138.984 44.3125 138.072 44.0767 137.254 43.6051C136.442 43.1278 135.794 42.4176 135.311 41.4744C134.834 40.5256 134.595 39.3381 134.595 37.9119C134.595 36.4744 134.834 35.2614 135.311 34.2727C135.794 33.2784 136.445 32.5256 137.263 32.0142C138.081 31.4972 138.993 31.2386 139.999 31.2386C140.766 31.2386 141.396 31.3693 141.891 31.6307C142.391 31.8864 142.788 32.196 143.084 32.5597C143.379 32.9176 143.604 33.2557 143.757 33.5739H143.928V31.4091H146.97V44.7131C146.97 45.8324 146.703 46.7585 146.169 47.4915C145.635 48.2244 144.905 48.7727 143.979 49.1364C143.053 49.5 142.001 49.6818 140.825 49.6818ZM140.851 41.892C141.504 41.892 142.061 41.733 142.521 41.4148C142.982 41.0966 143.331 40.6392 143.57 40.0426C143.808 39.446 143.928 38.7301 143.928 37.8949C143.928 37.071 143.808 36.3494 143.57 35.7301C143.337 35.1108 142.99 34.6307 142.53 34.2898C142.075 33.9432 141.516 33.7699 140.851 33.7699C140.163 33.7699 139.589 33.9489 139.129 34.3068C138.669 34.6648 138.322 35.1562 138.089 35.7812C137.857 36.4006 137.74 37.1051 137.74 37.8949C137.74 38.696 137.857 39.3977 138.089 40C138.328 40.5966 138.678 41.0625 139.138 41.3977C139.604 41.7273 140.175 41.892 140.851 41.892ZM162.622 31.4091V33.7955H155.097V31.4091H162.622ZM156.955 28.2727H160.04V40.5625C160.04 40.9773 160.102 41.2955 160.227 41.517C160.358 41.733 160.528 41.8807 160.739 41.9602C160.949 42.0398 161.182 42.0795 161.438 42.0795C161.631 42.0795 161.807 42.0653 161.966 42.0369C162.131 42.0085 162.256 41.983 162.341 41.9602L162.861 44.3722C162.696 44.429 162.46 44.4915 162.153 44.5597C161.852 44.6278 161.483 44.6676 161.045 44.679C160.273 44.7017 159.577 44.5852 158.957 44.3295C158.338 44.0682 157.847 43.6648 157.483 43.1193C157.125 42.5739 156.949 41.892 156.955 41.0739V28.2727ZM165.202 44.5V31.4091H168.288V44.5H165.202ZM166.754 29.5511C166.265 29.5511 165.844 29.3892 165.492 29.0653C165.14 28.7358 164.964 28.3409 164.964 27.8807C164.964 27.4148 165.14 27.0199 165.492 26.696C165.844 26.3665 166.265 26.2017 166.754 26.2017C167.248 26.2017 167.668 26.3665 168.015 26.696C168.367 27.0199 168.543 27.4148 168.543 27.8807C168.543 28.3409 168.367 28.7358 168.015 29.0653C167.668 29.3892 167.248 29.5511 166.754 29.5511ZM171.46 44.5V31.4091H174.409V33.6335H174.562C174.835 32.8835 175.287 32.2983 175.918 31.8778C176.548 31.4517 177.301 31.2386 178.176 31.2386C179.062 31.2386 179.81 31.4545 180.418 31.8864C181.031 32.3125 181.463 32.8949 181.713 33.6335H181.849C182.139 32.9062 182.628 32.3267 183.315 31.8949C184.009 31.4574 184.83 31.2386 185.778 31.2386C186.983 31.2386 187.966 31.6193 188.727 32.3807C189.489 33.142 189.869 34.2528 189.869 35.7131V44.5H186.776V36.1903C186.776 35.3778 186.56 34.7841 186.128 34.4091C185.696 34.0284 185.168 33.8381 184.543 33.8381C183.798 33.8381 183.216 34.071 182.795 34.5369C182.381 34.9972 182.173 35.5966 182.173 36.3352V44.5H179.148V36.0625C179.148 35.3864 178.943 34.8466 178.534 34.4432C178.131 34.0398 177.602 33.8381 176.949 33.8381C176.506 33.8381 176.102 33.9517 175.739 34.179C175.375 34.4006 175.085 34.7159 174.869 35.125C174.653 35.5284 174.545 36 174.545 36.5398V44.5H171.46ZM198.795 44.7557C197.482 44.7557 196.349 44.483 195.394 43.9375C194.445 43.3864 193.715 42.608 193.204 41.6023C192.692 40.5909 192.437 39.4006 192.437 38.0312C192.437 36.6847 192.692 35.5028 193.204 34.4858C193.721 33.4631 194.442 32.6676 195.369 32.0994C196.295 31.5256 197.383 31.2386 198.633 31.2386C199.44 31.2386 200.201 31.3693 200.917 31.6307C201.638 31.8864 202.275 32.2841 202.826 32.8239C203.383 33.3636 203.82 34.0511 204.138 34.8864C204.457 35.7159 204.616 36.7045 204.616 37.8523V38.7983H193.886V36.7188H201.658C201.653 36.1278 201.525 35.6023 201.275 35.142C201.025 34.6761 200.675 34.3097 200.227 34.0426C199.783 33.7756 199.266 33.642 198.675 33.642C198.045 33.642 197.491 33.7955 197.013 34.1023C196.536 34.4034 196.164 34.8011 195.897 35.2955C195.636 35.7841 195.502 36.321 195.496 36.9062V38.7216C195.496 39.483 195.636 40.1364 195.914 40.6818C196.192 41.2216 196.582 41.6364 197.082 41.9261C197.582 42.2102 198.167 42.3523 198.837 42.3523C199.286 42.3523 199.692 42.2898 200.056 42.1648C200.42 42.0341 200.735 41.8438 201.002 41.5938C201.269 41.3438 201.471 41.0341 201.607 40.6648L204.488 40.9886C204.306 41.75 203.96 42.4148 203.448 42.983C202.942 43.5455 202.295 43.983 201.505 44.2955C200.715 44.6023 199.812 44.7557 198.795 44.7557Z" fill="#DAE9FD"/>
<defs>
<linearGradient id="paint0_linear_54_1024" x1="0" y1="20.8897" x2="220" y2="20.8897" gradientUnits="userSpaceOnUse">
<stop stop-color="#214BC1"/>
<stop offset="1" stop-color="#1E40AE"/>
</linearGradient>
</defs>
</svg>
