<svg width="16" height="16" viewBox="0 0 16 16" fill="none" xmlns="http://www.w3.org/2000/svg">
<path fill-rule="evenodd" clip-rule="evenodd" d="M8 3.75C8 3.75 8.86433 3.75 9.65445 4.08419C9.65445 4.08419 10.4172 4.40682 11.0052 4.9948C11.0052 4.9948 11.5932 5.58277 11.9158 6.34555C11.9158 6.34555 12.25 7.13567 12.25 8C12.25 8 12.25 8.86433 11.9158 9.65445C11.9158 9.65445 11.5932 10.4172 11.0052 11.0052C11.0052 11.0052 10.4172 11.5932 9.65445 11.9158C9.65445 11.9158 8.86433 12.25 8 12.25C8 12.25 7.13567 12.25 6.34555 11.9158C6.34555 11.9158 5.58277 11.5932 4.9948 11.0052C4.9948 11.0052 4.40682 10.4172 4.08419 9.65445C4.08419 9.65445 3.75 8.86433 3.75 8C3.75 8 3.75 7.13567 4.08419 6.34555C4.08419 6.34555 4.40682 5.58277 4.9948 4.9948C4.9948 4.9948 5.58277 4.40682 6.34555 4.08419C6.34555 4.08419 7.13567 3.75 8 3.75ZM8 4.75C8 4.75 6.65381 4.75 5.7019 5.7019C5.7019 5.7019 4.75 6.65381 4.75 8C4.75 8 4.75 9.3462 5.7019 10.2981C5.7019 10.2981 6.65381 11.25 8 11.25C8 11.25 9.3462 11.25 10.2981 10.2981C10.2981 10.2981 11.25 9.3462 11.25 8C11.25 8 11.25 6.65381 10.2981 5.7019C10.2981 5.7019 9.3462 4.75 8 4.75Z" fill="#404040"/>
<path d="M8.5 2.25V1C8.5 0.723858 8.27614 0.5 8 0.5C7.72386 0.5 7.5 0.723858 7.5 1V2.25C7.5 2.52614 7.72386 2.75 8 2.75C8.27614 2.75 8.5 2.52614 8.5 2.25Z" fill="#404040"/>
<path d="M3.40354 2.69643C3.30977 2.60267 3.1826 2.54999 3.04999 2.54999C2.91738 2.54999 2.7902 2.60267 2.69643 2.69643C2.60267 2.7902 2.54999 2.91738 2.54999 3.04999C2.54999 3.1826 2.60267 3.30977 2.69643 3.40354L3.57768 4.28479C3.67145 4.37856 3.79863 4.43124 3.93124 4.43124C4.06385 4.43124 4.19102 4.37856 4.28479 4.28479C4.37856 4.19102 4.43124 4.06385 4.43124 3.93124C4.43124 3.79863 4.37856 3.67145 4.28479 3.57768L3.40354 2.69643Z" fill="#404040"/>
<path d="M2.25 7.5H1C0.723858 7.5 0.5 7.72386 0.5 8C0.5 8.27614 0.723858 8.5 1 8.5H2.25C2.52614 8.5 2.75 8.27614 2.75 8C2.75 7.72386 2.52614 7.5 2.25 7.5Z" fill="#404040"/>
<path d="M2.69643 12.5964C2.60267 12.6902 2.54999 12.8174 2.54999 12.95C2.54999 12.9586 2.55021 12.9672 2.55066 12.9758C2.55706 13.0993 2.60899 13.2161 2.69643 13.3035C2.7902 13.3973 2.91738 13.45 3.04999 13.45C3.1826 13.45 3.30977 13.3973 3.40354 13.3035L4.28479 12.4223C4.37856 12.3285 4.43124 12.2013 4.43124 12.0687C4.43124 11.9361 4.37856 11.8089 4.28479 11.7152C4.19102 11.6214 4.06385 11.5687 3.93124 11.5687C3.92261 11.5687 3.91398 11.5689 3.90537 11.5694C3.78187 11.5758 3.66513 11.6277 3.57768 11.7152L2.69643 12.5964Z" fill="#404040"/>
<path d="M7.5 13.75V15C7.5 15.2761 7.72386 15.5 8 15.5C8.27614 15.5 8.5 15.2761 8.5 15V13.75C8.5 13.4739 8.27614 13.25 8 13.25C7.72386 13.25 7.5 13.4739 7.5 13.75Z" fill="#404040"/>
<path d="M11.7152 12.4223L12.5964 13.3035C12.6902 13.3973 12.8174 13.45 12.95 13.45C13.0826 13.45 13.2098 13.3973 13.3035 13.3035C13.3973 13.2098 13.45 13.0826 13.45 12.95C13.45 12.8174 13.3973 12.6902 13.3035 12.5964L12.4223 11.7152C12.3285 11.6214 12.2013 11.5687 12.0687 11.5687C11.9361 11.5687 11.8089 11.6214 11.7152 11.7152C11.6214 11.8089 11.5687 11.9361 11.5687 12.0687C11.5687 12.2013 11.6214 12.3285 11.7152 12.4223Z" fill="#404040"/>
<path d="M13.75 8.5H15C15.2761 8.5 15.5 8.27614 15.5 8C15.5 7.72386 15.2761 7.5 15 7.5H13.75C13.4739 7.5 13.25 7.72386 13.25 8C13.25 8.27614 13.4739 8.5 13.75 8.5Z" fill="#404040"/>
<path d="M13.3035 3.40354C13.3973 3.30977 13.45 3.1826 13.45 3.04999C13.45 2.91738 13.3973 2.7902 13.3035 2.69643C13.2098 2.60267 13.0826 2.54999 12.95 2.54999C12.8174 2.54999 12.6902 2.60267 12.5964 2.69643L11.7152 3.57763C11.6214 3.67145 11.5687 3.79863 11.5687 3.93124C11.5687 4.06385 11.6214 4.19102 11.7152 4.28479C11.8089 4.37856 11.9361 4.43124 12.0687 4.43124C12.2013 4.43124 12.3285 4.37856 12.4223 4.28479L13.3035 3.40354Z" fill="#404040"/>
</svg>
