<svg width="20" height="20" viewBox="0 0 20 20" fill="none" xmlns="http://www.w3.org/2000/svg">
<path fill-rule="evenodd" clip-rule="evenodd" d="M13.1628 2.51376C11.6526 1.875 10 1.875 10 1.875C8.34739 1.875 6.83719 2.51376 6.83719 2.51376C5.37899 3.13053 4.25476 4.25476 4.25476 4.25476C3.13053 5.37899 2.51376 6.83719 2.51376 6.83719C1.875 8.34739 1.875 10 1.875 10C1.875 11.6526 2.51376 13.1628 2.51376 13.1628C3.13053 14.621 4.25476 15.7452 4.25476 15.7452C4.34115 15.8316 4.42952 15.915 4.51905 15.9954C4.5518 16.0319 4.589 16.0648 4.6301 16.093C5.67818 16.996 6.83719 17.4862 6.83719 17.4862C8.34739 18.125 10 18.125 10 18.125C11.6526 18.125 13.1628 17.4862 13.1628 17.4862C14.0873 17.0952 14.8776 16.5002 15.3322 16.117C15.3984 16.0782 15.4558 16.0281 15.5025 15.97C15.6587 15.8318 15.7452 15.7452 15.7452 15.7452C16.8695 14.621 17.4862 13.1628 17.4862 13.1628C18.125 11.6526 18.125 10 18.125 10C18.125 8.34739 17.4862 6.83719 17.4862 6.83719C16.8695 5.37899 15.7452 4.25476 15.7452 4.25476C14.621 3.13053 13.1628 2.51376 13.1628 2.51376ZM7.32413 16.335C6.72209 16.0803 6.18717 15.7233 5.79724 15.4244C6.4563 14.4329 7.3844 13.8632 7.3844 13.8632C8.58789 13.1245 10 13.125 10 13.125C11.4121 13.125 12.6156 13.8632 12.6156 13.8632C13.3733 14.3283 13.9073 14.9997 14.199 15.4332C13.4205 16.0201 12.6759 16.335 12.6759 16.335C11.3991 16.875 10 16.875 10 16.875C8.60087 16.875 7.32413 16.335 7.32413 16.335ZM6.73051 12.7979C6.73051 12.7979 7.10721 12.5668 7.7048 12.3359C7.58255 12.2439 7.46297 12.1413 7.34835 12.0267C7.34835 12.0267 6.25 10.9283 6.25 9.375C6.25 9.375 6.25 7.8217 7.34835 6.72335C7.34835 6.72335 8.4467 5.625 10 5.625C10 5.625 11.5533 5.625 12.6517 6.72335C12.6517 6.72335 13.75 7.8217 13.75 9.375C13.75 9.375 13.75 10.9283 12.6517 12.0267C12.6517 12.0267 12.5231 12.1552 12.2916 12.3244C12.6164 12.4462 12.9489 12.6011 13.2695 12.7979C13.2695 12.7979 14.317 13.4409 15.1281 14.5682C15.4488 14.1946 15.9873 13.4978 16.335 12.6759C16.335 12.6759 16.875 11.3991 16.875 10C16.875 10 16.875 8.60087 16.335 7.32413C16.335 7.32413 15.8132 6.09047 14.8614 5.13864C14.8614 5.13864 13.9095 4.18681 12.6759 3.66501C12.6759 3.66501 11.3991 3.125 10 3.125C10 3.125 8.60087 3.125 7.32413 3.66501C7.32413 3.66501 6.09047 4.18681 5.13864 5.13864C5.13864 5.13864 4.18681 6.09047 3.66502 7.32413C3.66502 7.32413 3.125 8.60087 3.125 10C3.125 10 3.125 11.3991 3.66502 12.6759C3.66502 12.6759 4.09131 13.6837 4.87614 14.5804C5.25917 14.045 5.88289 13.3182 6.73051 12.7979ZM11.7678 11.1428C11.0355 11.875 10 11.875 10 11.875C8.96447 11.875 8.23223 11.1428 8.23223 11.1428C7.5 10.4105 7.5 9.375 7.5 9.375C7.5 8.33947 8.23223 7.60723 8.23223 7.60723C8.96447 6.875 10 6.875 10 6.875C11.0355 6.875 11.7678 7.60723 11.7678 7.60723C12.5 8.33947 12.5 9.375 12.5 9.375C12.5 10.4105 11.7678 11.1428 11.7678 11.1428Z" fill="#A2A2A2"/>
</svg>
