<svg width="12" height="12" viewBox="0 0 12 12" fill="none" xmlns="http://www.w3.org/2000/svg">
<path d="M10.6648 0.539752L0.539752 10.6648C0.434263 10.7702 0.375 10.9133 0.375 11.0625C0.375 11.2117 0.434263 11.3548 0.539752 11.4602C0.645242 11.5657 0.788316 11.625 0.9375 11.625C1.08668 11.625 1.22976 11.5657 1.33525 11.4602L11.4602 1.33525C11.5657 1.22976 11.625 1.08668 11.625 0.9375C11.625 0.788316 11.5657 0.645242 11.4602 0.539753C11.3548 0.434263 11.2117 0.375 11.0625 0.375C10.9133 0.375 10.7702 0.434263 10.6648 0.539752Z" fill="#DB2626"/>
<path d="M1.33525 0.539752C1.22976 0.434263 1.08668 0.375 0.9375 0.375C0.788316 0.375 0.645242 0.434263 0.539752 0.539752C0.434263 0.645242 0.375 0.788316 0.375 0.9375C0.375 1.08668 0.434263 1.22976 0.539752 1.33525L10.6648 11.4602C10.7702 11.5657 10.9133 11.625 11.0625 11.625C11.2117 11.625 11.3548 11.5657 11.4602 11.4602C11.5657 11.3548 11.625 11.2117 11.625 11.0625C11.625 10.9133 11.5657 10.7702 11.4602 10.6648L1.33525 0.539752Z" fill="#DB2626"/>
</svg>
