<svg width="20" height="20" viewBox="0 0 20 20" fill="none" xmlns="http://www.w3.org/2000/svg">
<path fill-rule="evenodd" clip-rule="evenodd" d="M12.5 3.75C12.5 3.75 12.5 3.23223 12.8661 2.86612C12.8661 2.86612 13.2322 2.5 13.75 2.5H16.25C16.25 2.5 16.7678 2.5 17.1339 2.86612C17.1339 2.86612 17.5 3.23223 17.5 3.75V6.25C17.5 6.25 17.5 6.76777 17.1339 7.13388C17.1339 7.13388 16.7678 7.5 16.25 7.5H13.75C13.75 7.5 13.2322 7.5 12.8661 7.13388C12.8661 7.13388 12.5 6.76777 12.5 6.25V3.75ZM13.75 3.75V6.25H16.25V3.75H13.75Z" fill="#D3D3D3"/>
<path fill-rule="evenodd" clip-rule="evenodd" d="M2.5 3.75C2.5 3.75 2.5 3.23223 2.86612 2.86612C2.86612 2.86612 3.23223 2.5 3.75 2.5H6.25C6.25 2.5 6.76777 2.5 7.13388 2.86612C7.13388 2.86612 7.5 3.23223 7.5 3.75V6.25C7.5 6.25 7.5 6.76777 7.13388 7.13388C7.13388 7.13388 6.76777 7.5 6.25 7.5H3.75C3.75 7.5 3.23223 7.5 2.86612 7.13388C2.86612 7.13388 2.5 6.76777 2.5 6.25V3.75ZM3.75 3.75V6.25H6.25V3.75H3.75Z" fill="#D3D3D3"/>
<path fill-rule="evenodd" clip-rule="evenodd" d="M12.5 13.75C12.5 13.75 12.5 13.2322 12.8661 12.8661C12.8661 12.8661 13.2322 12.5 13.75 12.5H16.25C16.25 12.5 16.7678 12.5 17.1339 12.8661C17.1339 12.8661 17.5 13.2322 17.5 13.75V16.25C17.5 16.25 17.5 16.7678 17.1339 17.1339C17.1339 17.1339 16.7678 17.5 16.25 17.5H13.75C13.75 17.5 13.2322 17.5 12.8661 17.1339C12.8661 17.1339 12.5 16.7678 12.5 16.25V13.75ZM13.75 13.75V16.25H16.25V13.75H13.75Z" fill="#D3D3D3"/>
<path fill-rule="evenodd" clip-rule="evenodd" d="M2.5 13.75C2.5 13.75 2.5 13.2322 2.86612 12.8661C2.86612 12.8661 3.23223 12.5 3.75 12.5H6.25C6.25 12.5 6.76777 12.5 7.13388 12.8661C7.13388 12.8661 7.5 13.2322 7.5 13.75V16.25C7.5 16.25 7.5 16.7678 7.13388 17.1339C7.13388 17.1339 6.76777 17.5 6.25 17.5H3.75C3.75 17.5 3.23223 17.5 2.86612 17.1339C2.86612 17.1339 2.5 16.7678 2.5 16.25V13.75ZM3.75 13.75V16.25H6.25V13.75H3.75Z" fill="#D3D3D3"/>
<path d="M5.625 13.125V6.875C5.625 6.52982 5.34518 6.25 5 6.25C4.65482 6.25 4.375 6.52982 4.375 6.875V13.125C4.375 13.4702 4.65482 13.75 5 13.75C5.34518 13.75 5.625 13.4702 5.625 13.125Z" fill="#D3D3D3"/>
<path d="M13.125 14.375H6.875C6.52982 14.375 6.25 14.6548 6.25 15C6.25 15.3452 6.52982 15.625 6.875 15.625H13.125C13.4702 15.625 13.75 15.3452 13.75 15C13.75 14.6548 13.4702 14.375 13.125 14.375Z" fill="#D3D3D3"/>
<path d="M14.375 6.875V13.125C14.375 13.4702 14.6548 13.75 15 13.75C15.3452 13.75 15.625 13.4702 15.625 13.125V6.875C15.625 6.52982 15.3452 6.25 15 6.25C14.6548 6.25 14.375 6.52982 14.375 6.875Z" fill="#D3D3D3"/>
<path d="M6.875 5.625H13.125C13.4702 5.625 13.75 5.34518 13.75 5C13.75 4.65482 13.4702 4.375 13.125 4.375H6.875C6.52982 4.375 6.25 4.65482 6.25 5C6.25 5.34518 6.52982 5.625 6.875 5.625Z" fill="#D3D3D3"/>
</svg>
