<svg width="15" height="9" viewBox="0 0 15 9" fill="none" xmlns="http://www.w3.org/2000/svg">
<path d="M1.52532 1.05806C1.40811 0.940848 1.24913 0.875 1.08337 0.875C0.917614 0.875 0.758643 0.940848 0.641432 1.05806C0.524222 1.17527 0.458374 1.33424 0.458374 1.5C0.458374 1.66576 0.524222 1.82473 0.641432 1.94194L6.89143 8.19194C7.13551 8.43602 7.53124 8.43602 7.77532 8.19194L14.0253 1.94194C14.1425 1.82473 14.2084 1.66576 14.2084 1.5C14.2084 1.33424 14.1425 1.17527 14.0253 1.05806C13.9081 0.940848 13.7491 0.875 13.5834 0.875C13.4176 0.875 13.2586 0.940848 13.1414 1.05806L7.33337 6.86612L1.52532 1.05806Z" fill="#404040"/>
</svg>
