<svg width="12" height="14" viewBox="0 0 12 14" fill="none" xmlns="http://www.w3.org/2000/svg">
<path fill-rule="evenodd" clip-rule="evenodd" d="M1.01251 5.99993V5.49993C1.01251 5.49993 1.01111 4.50279 1.39327 3.58103C1.39327 3.58103 1.77544 2.65928 2.48249 1.95516C2.48249 1.95516 3.18954 1.25105 4.11288 0.872718C4.11288 0.872718 5.03621 0.494386 6.03404 0.499938C6.03404 0.499938 7.04865 0.507624 7.97256 0.912955C7.97256 0.912955 8.86146 1.30292 9.54577 2.00584C9.54577 2.00584 10.2274 2.706 10.6012 3.60885C10.6012 3.60885 10.9875 4.54176 10.9875 5.55618V5.99993C10.9875 5.99993 10.9875 8.59348 11.8015 9.99941C11.8015 9.99941 11.9355 10.2316 11.9357 10.4991C11.9357 10.4991 11.936 10.7665 11.8027 10.9984C11.8027 10.9984 11.6693 11.2303 11.438 11.3646C11.438 11.3646 11.2067 11.499 10.9393 11.4999L1.06251 11.4999C1.06251 11.4999 0.793269 11.499 0.561983 11.3646C0.561983 11.3646 0.330695 11.2303 0.197365 10.9984C0.197365 10.9984 0.0640338 10.7665 0.0642703 10.499C0.0642703 10.499 0.0645077 10.2316 0.198249 9.99993C0.198249 9.99993 1.01251 8.59348 1.01251 5.99993ZM2.01251 5.99993C2.01251 5.99993 2.01251 8.86207 1.06427 10.4999L10.9357 10.4999C10.9357 10.4999 9.98751 8.86162 9.98751 5.99993V5.55618C9.98751 5.55618 9.98751 3.89315 8.82925 2.7034C8.82925 2.7034 7.66973 1.51236 6.02848 1.49992C6.02848 1.49992 5.23047 1.49548 4.49202 1.79805C4.49202 1.79805 3.75358 2.10062 3.18812 2.66374C3.18812 2.66374 2.62266 3.22685 2.31702 3.96403C2.31702 3.96403 2.01139 4.7012 2.01251 5.49993V5.99993Z" fill="#404040"/>
<path d="M8.5 11.5V11C8.5 10.7238 8.27614 10.5 8 10.5C7.72386 10.5 7.5 10.7238 7.5 11V11.5C7.5 12.1213 7.06066 12.5606 7.06066 12.5606C6.62132 13 6 13 6 13C5.37868 13 4.93934 12.5606 4.93934 12.5606C4.5 12.1213 4.5 11.5 4.5 11.5V11C4.5 10.7238 4.27614 10.5 4 10.5C3.72386 10.5 3.5 10.7238 3.5 11V11.5C3.5 12.5355 4.23223 13.2677 4.23223 13.2677C4.96447 14 6 14 6 14C7.03553 14 7.76777 13.2677 7.76777 13.2677C8.5 12.5355 8.5 11.5 8.5 11.5Z" fill="#404040"/>
</svg>
