<svg width="19" height="14" viewBox="0 0 19 14" fill="none" xmlns="http://www.w3.org/2000/svg">
<path d="M14.625 8.75H18.375C18.7202 8.75 19 8.47018 19 8.125C19 7.77982 18.7202 7.5 18.375 7.5H14.625C14.2798 7.5 14 7.77982 14 8.125C14 8.47018 14.2798 8.75 14.625 8.75Z" fill="#2563EA"/>
<path d="M15.875 6.25V10C15.875 10.3452 16.1548 10.625 16.5 10.625C16.8452 10.625 17.125 10.3452 17.125 10V6.25C17.125 5.90482 16.8452 5.625 16.5 5.625C16.1548 5.625 15.875 5.90482 15.875 6.25Z" fill="#2563EA"/>
<path fill-rule="evenodd" clip-rule="evenodd" d="M7.4375 0C7.4375 0 8.51791 0 9.50556 0.417739C9.50556 0.417739 10.459 0.821028 11.194 1.556C11.194 1.556 11.929 2.29096 12.3323 3.24444C12.3323 3.24444 12.75 4.23209 12.75 5.3125C12.75 5.3125 12.75 6.39291 12.3323 7.38056C12.3323 7.38056 11.929 8.33404 11.194 9.069C11.194 9.069 10.459 9.80397 9.50556 10.2073C9.50556 10.2073 8.51791 10.625 7.4375 10.625C7.4375 10.625 6.35709 10.625 5.36944 10.2073C5.36944 10.2073 4.41596 9.80397 3.681 9.069C3.681 9.069 2.94603 8.33404 2.54274 7.38056C2.54274 7.38056 2.125 6.39291 2.125 5.3125C2.125 5.3125 2.125 4.23209 2.54274 3.24444C2.54274 3.24444 2.94603 2.29096 3.681 1.556C3.681 1.556 4.41596 0.821027 5.36944 0.417739C5.36944 0.417739 6.35709 0 7.4375 0ZM7.4375 1.25C7.4375 1.25 5.75476 1.25 4.56488 2.43988C4.56488 2.43988 3.375 3.62976 3.375 5.3125C3.375 5.3125 3.375 6.99524 4.56488 8.18512C4.56488 8.18512 5.75476 9.375 7.4375 9.375C7.4375 9.375 9.12024 9.375 10.3101 8.18512C10.3101 8.18512 11.5 6.99524 11.5 5.3125C11.5 5.3125 11.5 3.62976 10.3101 2.43988C10.3101 2.43988 9.12024 1.25 7.4375 1.25Z" fill="#2563EA"/>
<path d="M10.8714 11.3854C12.5039 12.1467 13.6617 13.5266 13.6617 13.5266C13.7806 13.6682 13.9559 13.75 14.1406 13.75L14.1507 13.7499C14.2942 13.7476 14.4325 13.696 14.5424 13.6038C14.6839 13.485 14.7656 13.3097 14.7656 13.125L14.7656 13.1149C14.7632 12.9714 14.7116 12.8332 14.6194 12.7233L14.6189 12.7226C13.2831 11.1308 11.3997 10.2525 11.3997 10.2525C9.51601 9.37408 7.43751 9.37408 7.43751 9.37408C5.35902 9.37408 3.47529 10.2525 3.47529 10.2525C1.59194 11.1308 0.256138 12.7226 0.256138 12.7226L0.255596 12.7233C0.161156 12.8358 0.10939 12.978 0.10939 13.125L0.109393 13.1268C0.109445 13.1444 0.110238 13.162 0.111771 13.1795C0.126225 13.3446 0.205684 13.4972 0.332668 13.6038C0.445227 13.6982 0.58746 13.75 0.73439 13.75C0.752582 13.75 0.770765 13.7492 0.788889 13.7476C0.954018 13.7331 1.10664 13.6537 1.21319 13.5267C2.37102 12.1467 4.00359 11.3854 4.00359 11.3854C5.63616 10.6241 7.43751 10.6241 7.43751 10.6241C9.23887 10.6241 10.8714 11.3854 10.8714 11.3854Z" fill="#2563EA"/>
</svg>
