<svg width="14" height="14" viewBox="0 0 14 14" fill="none" xmlns="http://www.w3.org/2000/svg">
<path fill-rule="evenodd" clip-rule="evenodd" d="M6.25 0.5C6.25 0.5 7.4195 0.5 8.48831 0.952069C8.48831 0.952069 9.52028 1.38856 10.3159 2.18414C10.3159 2.18414 11.1114 2.97972 11.5479 4.01169C11.5479 4.01169 12 5.0805 12 6.25C12 6.25 12 7.4195 11.5479 8.48831C11.5479 8.48831 11.1114 9.52028 10.3159 10.3159C10.3159 10.3159 9.52028 11.1114 8.48831 11.5479C8.48831 11.5479 7.4195 12 6.25 12C6.25 12 5.0805 12 4.01169 11.5479C4.01169 11.5479 2.97972 11.1114 2.18414 10.3159C2.18414 10.3159 1.38856 9.52028 0.952069 8.48831C0.952069 8.48831 0.5 7.4195 0.5 6.25C0.5 6.25 0.5 5.0805 0.952068 4.01169C0.952068 4.01169 1.38856 2.97972 2.18414 2.18414C2.18414 2.18414 2.97972 1.38856 4.01169 0.952069C4.01169 0.952069 5.0805 0.5 6.25 0.5ZM6.25 1.5C6.25 1.5 5.28328 1.5 4.40124 1.87307C4.40124 1.87307 3.5489 2.23358 2.89124 2.89124C2.89124 2.89124 2.23358 3.54891 1.87307 4.40124C1.87307 4.40124 1.5 5.28328 1.5 6.25C1.5 6.25 1.5 7.21672 1.87307 8.09876C1.87307 8.09876 2.23358 8.95109 2.89124 9.60876C2.89124 9.60876 3.54891 10.2664 4.40124 10.6269C4.40124 10.6269 5.28329 11 6.25 11C6.25 11 7.21671 11 8.09876 10.6269C8.09876 10.6269 8.95109 10.2664 9.60876 9.60876C9.60876 9.60876 10.2664 8.95109 10.6269 8.09876C10.6269 8.09876 11 7.21671 11 6.25C11 6.25 11 5.28329 10.6269 4.40124C10.6269 4.40124 10.2664 3.54891 9.60876 2.89124C9.60876 2.89124 8.95109 2.23358 8.09876 1.87307C8.09876 1.87307 7.21672 1.5 6.25 1.5Z" fill="#2563EA"/>
<path d="M12.6462 13.3533C12.74 13.4471 12.8674 13.5 13 13.5C13.1326 13.5 13.2598 13.4473 13.3536 13.3536C13.4473 13.2598 13.5 13.1326 13.5 13C13.5 12.8674 13.4473 12.7402 13.3536 12.6465L10.3161 9.60903C10.2223 9.5152 10.0951 9.46252 9.96252 9.46252C9.82992 9.46252 9.70253 9.51499 9.60876 9.60876C9.51499 9.70253 9.46252 9.82992 9.46252 9.96252C9.46252 10.0951 9.5152 10.2223 9.60897 10.3161L12.6462 13.3533Z" fill="#2563EA"/>
</svg>
