<svg width="16" height="16" viewBox="0 0 16 16" fill="none" xmlns="http://www.w3.org/2000/svg">
<path d="M5 3V13C5 13.2761 5.22386 13.5 5.5 13.5C5.77614 13.5 6 13.2761 6 13V3C6 2.72386 5.77614 2.5 5.5 2.5C5.22386 2.5 5 2.72386 5 3Z" fill="#171717"/>
<path fill-rule="evenodd" clip-rule="evenodd" d="M1.5 3.5C1.5 3.5 1.5 3.08579 1.79289 2.79289C1.79289 2.79289 2.08579 2.5 2.5 2.5H13.5C13.5 2.5 13.9142 2.5 14.2071 2.79289C14.2071 2.79289 14.5 3.08579 14.5 3.5V12.5C14.5 12.5 14.5 12.9142 14.2071 13.2071C14.2071 13.2071 13.9142 13.5 13.5 13.5H2.5C2.5 13.5 2.08579 13.5 1.79289 13.2071C1.79289 13.2071 1.5 12.9142 1.5 12.5V3.5ZM2.5 3.5V12.5H13.5V3.5H2.5Z" fill="#171717"/>
<path d="M2 5.5H3.5C3.77614 5.5 4 5.27614 4 5C4 4.72386 3.77614 4.5 3.5 4.5H2C1.72386 4.5 1.5 4.72386 1.5 5C1.5 5.27614 1.72386 5.5 2 5.5Z" fill="#171717"/>
<path d="M2 7.5H3.5C3.77614 7.5 4 7.27614 4 7C4 6.72386 3.77614 6.5 3.5 6.5H2C1.72386 6.5 1.5 6.72386 1.5 7C1.5 7.27614 1.72386 7.5 2 7.5Z" fill="#171717"/>
<path d="M2 9.5H3.5C3.77614 9.5 4 9.27614 4 9C4 8.72386 3.77614 8.5 3.5 8.5H2C1.72386 8.5 1.5 8.72386 1.5 9C1.5 9.27614 1.72386 9.5 2 9.5Z" fill="#171717"/>
</svg>
