<svg width="20" height="21" viewBox="0 0 20 21" fill="none" xmlns="http://www.w3.org/2000/svg">
<path d="M7.78569 6.77681C7.66848 6.6596 7.50951 6.59375 7.34375 6.59375C7.17799 6.59375 7.01902 6.6596 6.90181 6.77681C6.7846 6.89402 6.71875 7.05299 6.71875 7.21875C6.71875 7.38451 6.7846 7.54348 6.90181 7.66069L9.74112 10.5L6.90204 13.3391C6.78483 13.4563 6.71875 13.6155 6.71875 13.7812C6.71875 13.7913 6.71899 13.8013 6.71947 13.8113C6.72694 13.9665 6.79194 14.1133 6.90181 14.2232C7.01902 14.3404 7.17799 14.4062 7.34375 14.4062C7.50951 14.4062 7.66848 14.3404 7.78569 14.2232L11.0669 10.9419C11.1842 10.8247 11.25 10.6658 11.25 10.5C11.25 10.3342 11.1842 10.1753 11.0669 10.0581L7.78569 6.77681Z" fill="#EEF5FE"/>
<path d="M1.875 11.125H10.625C10.9702 11.125 11.25 10.8452 11.25 10.5C11.25 10.1548 10.9702 9.875 10.625 9.875H1.875C1.52982 9.875 1.25 10.1548 1.25 10.5C1.25 10.8452 1.52982 11.125 1.875 11.125Z" fill="#EEF5FE"/>
<path d="M15 16.75H10.625C10.2798 16.75 10 17.0298 10 17.375C10 17.7202 10.2798 18 10.625 18H15C15.5178 18 15.8839 17.6339 15.8839 17.6339C16.25 17.2678 16.25 16.75 16.25 16.75V4.25C16.25 3.73223 15.8839 3.36612 15.8839 3.36612C15.5178 3 15 3 15 3H10.625C10.2798 3 10 3.27982 10 3.625C10 3.97018 10.2798 4.25 10.625 4.25H15V16.75Z" fill="#EEF5FE"/>
</svg>
