<svg width="14" height="12" viewBox="0 0 14 12" fill="none" xmlns="http://www.w3.org/2000/svg">
<path d="M6.5 2.99999V5.99999C6.5 6.27614 6.72386 6.49999 7 6.49999C7.27614 6.49999 7.5 6.27614 7.5 5.99999V2.99999C7.5 2.72385 7.27614 2.49999 7 2.49999C6.72386 2.49999 6.5 2.72385 6.5 2.99999Z" fill="#404040"/>
<path d="M7.24993 5.56694L9.84986 7.0669C9.99605 7.15124 10.0898 7.30363 10.0992 7.47214C10.0997 7.48141 10.1 7.4907 10.1 7.49999C10.1 7.58771 10.0769 7.67388 10.0331 7.74986C9.94876 7.89604 9.79637 7.98981 9.62786 7.99922C9.61858 7.99974 9.60929 7.99999 9.6 7.99999C9.51229 7.99999 9.42612 7.97692 9.35014 7.93309L6.75021 6.43313C6.63777 6.36826 6.555 6.26229 6.5193 6.13757L6.51708 6.12956C6.50574 6.0873 6.5 6.04374 6.5 5.99999C6.5 5.92008 6.51915 5.84133 6.55586 5.77035C6.55939 5.76353 6.56307 5.75679 6.56691 5.75013C6.63174 5.63776 6.7377 5.55499 6.86242 5.51929L6.87044 5.51707C6.91269 5.50574 6.95625 5.49999 7 5.49999C7.07991 5.49999 7.15866 5.51915 7.22965 5.55585C7.23647 5.55938 7.24321 5.56306 7.24993 5.56694Z" fill="#404040"/>
<path d="M1.48749 3.73126V1.73126C1.48749 1.45511 1.26363 1.23126 0.987488 1.23126C0.711345 1.23126 0.487488 1.45511 0.487488 1.73126V4.23126C0.487488 4.5074 0.711345 4.73126 0.987488 4.73126H3.48749C3.76363 4.73126 3.98749 4.5074 3.98749 4.23126C3.98749 3.95511 3.76363 3.73126 3.48749 3.73126H1.48749Z" fill="#404040"/>
<path d="M2.75946 1.7584L0.634456 3.87715C0.540369 3.97096 0.487488 4.09839 0.487488 4.23126C0.487488 4.23964 0.487699 4.24799 0.48812 4.25636C0.494337 4.37986 0.546101 4.49668 0.633414 4.58425C0.727224 4.67834 0.854624 4.73126 0.987488 4.73126C0.995869 4.73126 1.00425 4.73101 1.01262 4.73059C1.13613 4.72437 1.25295 4.67261 1.34052 4.5853L3.46552 2.46655C4.53844 1.39275 6.02621 1.09634 6.02621 1.09634C7.51398 0.799935 8.91564 1.38018 8.91564 1.38018C10.3173 1.96043 11.1602 3.2217 11.1602 3.2217C12.0032 4.48296 12.0032 5.99997 12.0032 5.99997C12.0032 7.51698 11.1602 8.77825 11.1602 8.77825C10.3173 10.0395 8.91564 10.6198 8.91564 10.6198C7.51398 11.2 6.02621 10.9036 6.02621 10.9036C4.53843 10.6072 3.46619 9.53407 3.46619 9.53407C3.37241 9.44021 3.24517 9.38748 3.11249 9.38747C3.10393 9.38747 3.09537 9.38769 3.08682 9.38813C2.96332 9.39448 2.84656 9.44637 2.75908 9.53378C2.66527 9.62751 2.61254 9.75466 2.61249 9.88727C2.61249 9.89521 2.61268 9.90336 2.61306 9.91129C2.61898 10.0354 2.67093 10.153 2.75879 10.2409C4.04545 11.5285 5.83082 11.8843 5.83082 11.8843C7.61615 12.24 9.29813 11.5437 9.29813 11.5437C10.9801 10.8474 11.9916 9.3339 11.9916 9.3339C13.0032 7.82039 13.0032 5.99997 13.0032 5.99997C13.0032 4.17956 11.9916 2.66604 11.9916 2.66604C10.9801 1.15253 9.29813 0.456227 9.29813 0.456227C7.61614 -0.240073 5.83082 0.115619 5.83082 0.115619C4.04549 0.471311 2.75946 1.7584 2.75946 1.7584Z" fill="#404040"/>
</svg>
